# xmcd
#
# Track frame offsets: 
#        150
#        450
#        14403
#        28901
#        48871
#        67629
#        89951
#        106297
#        122454
#        140382
#        162482
#        180487
#        195944
#        210766
#        229552
#        243039
#        264757
#        281772
#
# Disc length: 3932 seconds
#
# Revision: 0
# Processed by: cddbd v1.5.2PL0 Copyright (c) Steve Scherf et al.
# Submitted via: ExactAudioCopy v1.3
#
DISCID=db0f5a12
DTITLE=Magic Sam - Black Magic
DYEAR=2015
DGENRE=Chicago Blues
TTITLE0=I Just Want A Little Bit
TTITLE1=What Have I Done Wrong
TTITLE2=Easy, Baby
TTITLE3=You Belong To Me
TTITLE4=It's All Your Fault Baby
TTITLE5=Same Old Blues
TTITLE6=You Don't Love Me, Baby
TTITLE7=San-Ho-Zay
TTITLE8=You Better Stop
TTITLE9=Keep On Loving Me, Baby
TTITLE10=What Have I Done Wrong (alternate)
TTITLE11=I Just Want A Little Bit (alternate)
TTITLE12=Everything's Gonna Be All Right
TTITLE13=Keep On Doing What You're Doing
TTITLE14=Blues For Odie Payne
TTITLE15=Same Old Blues (alternate)
TTITLE16=What Have I Done Wrong (alternate 2)
TTITLE17=Keep On Loving Me, Baby (alternate)
EXTD=
EXTT0=
EXTT1=
EXTT2=
EXTT3=
EXTT4=
EXTT5=
EXTT6=
EXTT7=
EXTT8=
EXTT9=
EXTT10=
EXTT11=
EXTT12=
EXTT13=
EXTT14=
EXTT15=
EXTT16=
EXTT17=
PLAYORDER=
